<svg width="59" height="48" viewBox="0 0 59 48" fill="none" xmlns="http://www.w3.org/2000/svg">
<path d="M52.402 9.78613L49.9301 12.0629C52.9135 14.8989 55.227 19.9866 55.227 23.9986C55.227 34.8493 46.1682 40.3143 37.4601 40.3143V37.3163L32.4649 42.0006L37.4601 46.6849V43.6835C49.6462 43.6835 58.9034 35.5786 58.9034 23.9986C58.9027 18.3793 56.5964 13.7581 52.402 9.78613Z" fill="#28477C"/>
<path d="M38.4411 5.99945L33.4459 1.31519V4.31319C21.2598 4.31319 12.6631 12.4208 12.6631 23.9988C12.993 29.5892 14.9723 34.1919 18.5033 38.2146L20.9766 35.9372C18.5033 33.2056 16.3388 28.0134 16.3388 23.9988C15.6321 13.8083 24.7364 7.68571 33.4452 7.68571V10.685L38.4411 5.99945Z" fill="#28477C"/>
<path d="M29.6241 19.742H28.3401V23H27.1701V19.742H25.8801V18.8H29.6241V19.742ZM33.9801 18.8L32.2401 22.046C32.0561 22.394 31.8301 22.658 31.5621 22.838C31.2981 23.018 31.0081 23.108 30.6921 23.108C30.4601 23.108 30.2121 23.056 29.9481 22.952L30.2301 22.076C30.3941 22.124 30.5341 22.148 30.6501 22.148C30.7661 22.148 30.8681 22.122 30.9561 22.07C31.0481 22.018 31.1321 21.936 31.2081 21.824L29.5761 18.8H30.8301L31.8081 20.828L32.8221 18.8H33.9801ZM38.7912 22.058V23.846H37.7052V23H35.0172V23.846H33.9252V22.058H34.0752C34.3232 22.054 34.4972 21.884 34.5972 21.548C34.7012 21.212 34.7652 20.728 34.7892 20.096L34.8372 18.8H38.2212V22.058H38.7912ZM35.8272 20.198C35.8112 20.646 35.7752 21.026 35.7192 21.338C35.6632 21.65 35.5772 21.89 35.4612 22.058H37.0512V19.742H35.8452L35.8272 20.198ZM42.3042 22.184H40.5282L40.1982 23H38.9862L40.8402 18.8H42.0102L43.8702 23H42.6342L42.3042 22.184ZM41.9562 21.308L41.4162 19.964L40.8762 21.308H41.9562ZM44.0254 20.852H45.7774V21.728H44.0254V20.852ZM22.3452 30.084C21.9012 30.084 21.5012 29.99 21.1452 29.802C20.7932 29.614 20.5152 29.354 20.3112 29.022C20.1112 28.69 20.0112 28.316 20.0112 27.9C20.0112 27.484 20.1112 27.11 20.3112 26.778C20.5152 26.446 20.7932 26.186 21.1452 25.998C21.5012 25.81 21.9012 25.716 22.3452 25.716C22.7892 25.716 23.1872 25.81 23.5392 25.998C23.8952 26.186 24.1732 26.446 24.3732 26.778C24.5772 27.11 24.6792 27.484 24.6792 27.9C24.6792 28.316 24.5772 28.69 24.3732 29.022C24.1732 29.354 23.8952 29.614 23.5392 29.802C23.1872 29.99 22.7892 30.084 22.3452 30.084ZM22.3452 29.1C22.5572 29.1 22.7492 29.05 22.9212 28.95C23.0932 28.85 23.2292 28.71 23.3292 28.53C23.4292 28.346 23.4792 28.136 23.4792 27.9C23.4792 27.664 23.4292 27.456 23.3292 27.276C23.2292 27.092 23.0932 26.95 22.9212 26.85C22.7492 26.75 22.5572 26.7 22.3452 26.7C22.1332 26.7 21.9412 26.75 21.7692 26.85C21.5972 26.95 21.4612 27.092 21.3612 27.276C21.2612 27.456 21.2112 27.664 21.2112 27.9C21.2112 28.136 21.2612 28.346 21.3612 28.53C21.4612 28.71 21.5972 28.85 21.7692 28.95C21.9412 29.05 22.1332 29.1 22.3452 29.1ZM25.3144 25.8H28.8244V26.718H26.4844V27.396H27.5704C28.0784 27.396 28.4684 27.504 28.7404 27.72C29.0124 27.936 29.1484 28.246 29.1484 28.65C29.1484 29.074 28.9964 29.406 28.6924 29.646C28.3884 29.882 27.9624 30 27.4144 30H25.3144V25.8ZM27.3364 29.148C27.5364 29.148 27.6884 29.108 27.7924 29.028C27.8964 28.948 27.9484 28.834 27.9484 28.686C27.9484 28.39 27.7444 28.242 27.3364 28.242H26.4844V29.148H27.3364ZM31.6816 25.8C32.0616 25.8 32.3916 25.864 32.6716 25.992C32.9516 26.116 33.1676 26.296 33.3196 26.532C33.4716 26.764 33.5476 27.038 33.5476 27.354C33.5476 27.67 33.4716 27.944 33.3196 28.176C33.1676 28.408 32.9516 28.588 32.6716 28.716C32.3916 28.84 32.0616 28.902 31.6816 28.902H30.9496V30H29.7616V25.8H31.6816ZM31.6096 27.966C31.8536 27.966 32.0376 27.914 32.1616 27.81C32.2856 27.702 32.3476 27.55 32.3476 27.354C32.3476 27.158 32.2856 27.006 32.1616 26.898C32.0376 26.79 31.8536 26.736 31.6096 26.736H30.9496V27.966H31.6096ZM36.7729 29.184H34.9969L34.6669 30H33.4549L35.3089 25.8H36.4789L38.3389 30H37.1029L36.7729 29.184ZM36.4249 28.308L35.8849 26.964L35.3449 28.308H36.4249ZM41.9933 26.742H40.7093V30H39.5393V26.742H38.2493V25.8H41.9933V26.742ZM46.5369 25.8V30H45.3489V28.362H43.7289V30H42.5409V25.8H43.7289V27.378H45.3489V25.8H46.5369ZM49.5034 30.084C49.0594 30.084 48.6594 29.99 48.3034 29.802C47.9514 29.614 47.6734 29.354 47.4694 29.022C47.2694 28.69 47.1694 28.316 47.1694 27.9C47.1694 27.484 47.2694 27.11 47.4694 26.778C47.6734 26.446 47.9514 26.186 48.3034 25.998C48.6594 25.81 49.0594 25.716 49.5034 25.716C49.9474 25.716 50.3454 25.81 50.6974 25.998C51.0534 26.186 51.3314 26.446 51.5314 26.778C51.7354 27.11 51.8374 27.484 51.8374 27.9C51.8374 28.316 51.7354 28.69 51.5314 29.022C51.3314 29.354 51.0534 29.614 50.6974 29.802C50.3454 29.99 49.9474 30.084 49.5034 30.084ZM49.5034 29.1C49.7154 29.1 49.9074 29.05 50.0794 28.95C50.2514 28.85 50.3874 28.71 50.4874 28.53C50.5874 28.346 50.6374 28.136 50.6374 27.9C50.6374 27.664 50.5874 27.456 50.4874 27.276C50.3874 27.092 50.2514 26.95 50.0794 26.85C49.9074 26.75 49.7154 26.7 49.5034 26.7C49.2914 26.7 49.0994 26.75 48.9274 26.85C48.7554 26.95 48.6194 27.092 48.5194 27.276C48.4194 27.456 48.3694 27.664 48.3694 27.9C48.3694 28.136 48.4194 28.346 48.5194 28.53C48.6194 28.71 48.7554 28.85 48.9274 28.95C49.0994 29.05 49.2914 29.1 49.5034 29.1Z" fill="#28477C"/>
</svg>
