<svg width="25" height="77" viewBox="0 0 25 77" fill="none" xmlns="http://www.w3.org/2000/svg">
<path fill-rule="evenodd" clip-rule="evenodd" d="M19.2649 7.6104C19.2649 11.5778 16.0487 14.794 12.0813 14.794C8.11384 14.794 4.89762 11.5778 4.89762 7.6104C4.89762 3.64298 8.11384 0.426758 12.0813 0.426758C16.0487 0.426758 19.2649 3.64298 19.2649 7.6104ZM16.9051 71.7481C16.7585 74.2105 14.7189 76.1323 12.2521 76.1323C9.76398 76.1323 7.71451 74.1781 7.59617 71.6928L6.75365 54H17.9615L16.9051 71.7481ZM4.34783 45L4.95652 52H11.5V51H13.5V52H20.0435L20.6522 45H4.34783ZM3.99997 43.1997C1.99653 42.0892 0.706882 39.8687 0.927892 37.41L2.28618 22.2991C2.56421 19.206 5.15653 16.8363 8.26208 16.8363H16.5795C19.675 16.8363 22.2623 19.1911 22.553 22.2728L23.9783 37.3837C24.2076 39.8142 22.9588 42.0169 21 43.148V43H3.99997V43.1997Z" fill="#28477C"/>
</svg>
