<svg width="340" height="368" viewBox="0 0 340 368" fill="none" xmlns="http://www.w3.org/2000/svg">
<path d="M0.5 0.5H339.5V357.431C339.391 357.417 339.267 357.402 339.128 357.384C338.514 357.307 337.611 357.197 336.45 357.062C334.129 356.792 330.778 356.424 326.657 356.033C318.415 355.252 307.091 354.376 294.765 354C282.441 353.625 269.105 353.75 256.841 354.971C244.588 356.192 233.359 358.512 225.276 362.553C217.392 366.495 206.341 367.625 193.715 367.223C181.103 366.822 166.997 364.896 153.043 362.787C150.395 362.387 147.752 361.979 145.126 361.575C133.928 359.85 123.038 358.173 113.363 357.264C101.442 356.143 91.2534 356.174 84.5681 358.784C78.082 361.317 69.5687 362.517 60.4138 362.879C51.2668 363.241 41.5163 362.766 32.5756 361.971C23.6362 361.175 15.5147 360.059 9.62772 359.143C6.68449 358.684 4.30044 358.276 2.65273 357.982C1.82889 357.835 1.18918 357.717 0.755739 357.635C0.660443 357.617 0.575118 357.601 0.5 357.587V0.5Z" stroke="#28477C"/>
<rect width="340" height="16" fill="url(#paint0_linear_437:287)"/>
<defs>
<linearGradient id="paint0_linear_437:287" x1="-3.56235e-07" y1="8.00001" x2="336.5" y2="16.0001" gradientUnits="userSpaceOnUse">
<stop stop-color="#BD0F04"/>
<stop offset="1" stop-color="#BD0F04" stop-opacity="0"/>
</linearGradient>
</defs>
</svg>
