<svg width="84" height="59" viewBox="0 0 84 59" fill="none" xmlns="http://www.w3.org/2000/svg">
<g clip-path="url(#clip0_364:630)">
<path d="M36.0505 38.1154L40.8174 38.0763L43.8521 32.2731L47.162 37.959L52.0468 37.9199L47.6351 21.4502L39.912 21.6066L36.0505 38.1154Z" fill="#5CCF54"/>
<path d="M29.9038 28.8615H29.7859L28.6041 21.4502L21.5128 21.2532L25.6493 33.4494C24.414 33.4574 23.1914 33.2009 22.0644 32.6973C21.9057 33.3637 21.4735 35.7553 21.3087 36.6579C22.61 37.4416 24.815 37.9515 26.5894 37.9515C31.5134 37.9515 33.4449 35.4019 35.4929 29.7942C37.6602 23.9127 38.1725 22.4626 38.4082 21.6714L31.3563 21.4367L29.9038 28.8615Z" fill="#FBCE19"/>
<path d="M43.8523 12.7437L45.2699 12.8625C46.2554 15.9206 48.8565 17.8806 52.6378 17.8806C57.6813 17.8806 60.6753 14.1953 60.6753 8.31382C60.6753 2.07883 56.0657 0.509931 52.6378 0.509931C49.0106 0.509931 46.6499 2.19616 45.4679 5.21513L44.4432 5.17602L44.7576 0.353492L38.7303 0L38.4145 16.8232L43.5365 17.0188L43.8523 12.7437ZM52.1648 9.60747C53.8273 9.60747 55.2782 10.2347 55.2782 11.3719C55.2782 12.3917 54.45 13.2537 52.9538 13.2537C51.3774 13.2537 49.8796 12.5873 49.8796 11.3328C49.8751 10.2287 50.8258 9.60747 52.1648 9.60747Z" fill="#0BC2E1"/>
<path d="M66.625 7.41125C69.3032 7.52859 69.8155 7.99941 69.8155 8.54844C69.7762 8.94105 69.5797 9.25392 68.8316 9.17568C68.1212 9.13655 64.3399 8.70488 64.3399 8.70488L64.0633 11.6471L68.9888 12.1947C69.4226 12.2744 69.7762 12.47 69.7762 12.9468C69.7762 13.3785 69.4226 13.6522 68.6729 13.6522C66.2699 13.535 63.5509 12.7904 61.6995 11.966C61.5816 12.3977 60.5569 15.1821 60.3997 15.6122C61.8173 16.4366 64.97 17.7693 69.1459 17.9273C74.2286 18.0777 75.0161 15.6122 75.0962 13.887C75.1355 12.4368 74.2286 11.2997 73.2039 10.7115C74.5052 9.88722 75.4499 8.39802 75.4892 6.24097C75.5678 3.09715 73.0861 0.353455 68.162 0.353455C65.7082 0.370071 63.2638 0.659165 60.8743 1.21537C60.9529 2.509 61.6617 8.03851 61.6617 8.03851C63.2829 7.62186 64.9506 7.4111 66.625 7.41125Z" fill="#FBCE19"/>
<path d="M53.3074 21.1358L52.9931 37.6054C55.1596 38.0594 57.3601 38.335 59.572 38.4298C64.4975 38.7036 67.0184 36.5074 67.2557 32.3513C67.4916 27.9981 64.6547 25.6845 60.7146 25.5281C60.1507 25.4861 59.5844 25.4861 59.0204 25.5281L59.3362 21.4501L53.3074 21.1358ZM60.7131 31.9661C62.0144 32.0052 62.8411 32.3197 62.8018 33.1815C62.7625 34.0435 62.0144 34.3579 60.556 34.2796C59.8675 34.2637 59.1821 34.1852 58.508 34.045C58.5473 33.6523 58.6259 32.3197 58.6592 32.0052C59.3426 31.9456 60.0292 31.9301 60.7146 31.9586L60.7131 31.9661Z" fill="#726DE3"/>
<path d="M28.2488 42.5467L24.4674 58.5065H29.3914L32.1889 52.1542L34.5935 58.6629L40.6601 58.8209L37.3109 42.6249L28.2488 42.5467Z" fill="#0BC2E1"/>
<path d="M65.4042 49.2527L65.4374 47.92L73.7167 47.762L73.8346 42.5859L58.3506 42.9004L58.5879 58.5443C59.1003 58.6616 63.9851 59.1715 67.2949 58.9368C72.2991 58.5834 73.8738 56.4655 74.0325 53.5638C74.2291 49.0947 70.2104 48.3893 65.4042 49.2527ZM66.2309 55.6441C65.8594 55.6576 65.4879 55.618 65.1276 55.5268V53.8796C65.8847 53.7769 66.6491 53.7376 67.4128 53.7624C68.2002 53.8015 68.9499 53.8796 68.9499 54.5461C68.9499 55.2906 67.9252 55.6441 66.2309 55.6441Z" fill="#5CCF54"/>
<path d="M28.8416 17.6069C32.9389 17.6069 37.6332 15.4934 37.6332 8.47025C37.6332 2.70759 33.7656 0.431702 29.0774 0.431702C25.0193 0.431702 20.5669 2.82341 20.5669 8.86285C20.5669 15.4498 24.9015 17.6069 28.8416 17.6069ZM29.2739 9.02531C30.7716 9.02531 31.9943 9.45699 31.9943 10.7506C31.9943 11.966 30.9696 12.7497 29.1575 12.7497C27.5812 12.7497 26.5579 12.0834 26.5579 10.9071C26.5579 9.73075 27.5403 9.02531 29.2739 9.02531Z" fill="#726DE3"/>
<path d="M67.4129 20.8228V28.6644L72.417 29.0178L72.1798 37.5272L77.066 37.8025L77.9728 29.4104L82.9755 29.7233L84.0001 21.9209L67.4129 20.8228Z" fill="#F7822B"/>
<path d="M49.6436 50.429H49.4925L48.0613 42.7034L40.5755 42.553L45.2244 54.5521C44.3977 54.5912 42.9393 54.3565 41.6788 53.8857C41.6002 54.5521 41.2843 56.9438 41.1664 57.7682C42.3876 58.5128 44.6728 58.9445 47.1167 58.8662C51.489 58.7083 53.144 56.9829 55.3506 50.787C57.0841 45.9254 57.3592 44.7883 57.8322 42.9064L50.8588 42.7876L49.6436 50.429Z" fill="#F7822B"/>
<path d="M26.0438 42.4296L18.7938 42.5078L15.8391 47.2912H15.2874L15.2088 42.5468L7.72153 42.7816L9.45506 58.8602L15.2874 58.8993L15.2481 54.1143H15.7605L18.3207 58.7805L24.1122 58.7413L21.0789 50.2319L26.0438 42.4296Z" fill="#726DE3"/>
<path d="M14.066 17.6069C16.6656 17.6069 19.0293 16.784 20.8429 15.9206C20.5271 14.7835 19.8969 13.019 19.5024 11.9209C18.1633 12.3527 16.8228 12.7437 15.0106 12.7844C13.475 12.7844 12.2523 12.3527 12.2131 11.0184C12.1738 9.72474 13.1985 9.09752 15.3265 9.01931C16.7442 8.9802 18.2419 9.17577 19.4963 9.32617C19.6143 8.46424 20.1659 2.66097 20.252 0.974739C18.795 0.543028 16.6248 0.308371 14.264 0.34748C8.8246 0.470826 5.44067 3.68534 5.59181 9.13664C5.71271 14.591 8.9833 17.7242 14.066 17.6069Z" fill="#F7822B"/>
<path d="M9.02283 36.3901L12.7649 36.1946L14.8536 30.5868H15.0109L15.5232 37.6446L20.1328 37.3708L20.2522 21.0967L12.3327 21.5284L10.4798 27.2144L7.95884 21.7631L0 22.1557L1.81212 38.3907L6.38248 38.1154L6.2253 31.0577L6.38248 31.0185L9.02283 36.3901Z" fill="#0BC2E1"/>
</g>
<defs>
<clipPath id="clip0_364:630">
<rect width="84" height="59" fill="white"/>
</clipPath>
</defs>
</svg>
