<svg width="17" height="25" viewBox="0 0 17 25" fill="none" xmlns="http://www.w3.org/2000/svg">
<path fill-rule="evenodd" clip-rule="evenodd" d="M0 2C0 0.89543 0.895431 0 2 0H14.1C15.2046 0 16.1 0.895431 16.1 2V23C16.1 24.1046 15.2046 25 14.1 25H2C0.895429 25 0 24.1046 0 23V2ZM5.03157 4.1665C5.03157 3.66945 5.43451 3.2665 5.93157 3.2665H9.69765C10.1947 3.2665 10.5976 3.66945 10.5976 4.1665C10.5976 4.66356 10.1947 5.0665 9.69765 5.0665H5.93157C5.43451 5.0665 5.03157 4.66356 5.03157 4.1665ZM6.77896 19.9335C6.2819 19.9335 5.87896 20.3364 5.87896 20.8335C5.87896 21.3306 6.2819 21.7335 6.77896 21.7335H8.662C9.15906 21.7335 9.562 21.3306 9.562 20.8335C9.562 20.3364 9.15906 19.9335 8.662 19.9335H6.77896Z" fill="#28477C"/>
</svg>
