<svg width="42" height="38" viewBox="0 0 42 38" fill="none" xmlns="http://www.w3.org/2000/svg">
<path d="M27.1265 4.82398L21.8761 0V3.08742C9.06758 3.08742 0.0317383 11.4368 0.0317383 23.3602C0.378474 29.1173 2.45889 33.8573 6.17027 38L8.76989 35.6547C6.17027 32.8416 3.89516 27.4946 3.89516 23.3602C3.15236 12.8658 12.7218 6.56054 21.8754 6.56054V9.64934L27.1265 4.82398Z" fill="#28477C"/>
<path d="M15.3453 17.804C15.5933 17.884 15.7813 18.008 15.9093 18.176C16.0413 18.344 16.1073 18.552 16.1073 18.8C16.1073 19.172 15.9613 19.466 15.6693 19.682C15.3813 19.894 14.9713 20 14.4393 20H12.2853V15.8H14.3253C14.8293 15.8 15.2193 15.896 15.4953 16.088C15.7753 16.276 15.9153 16.544 15.9153 16.892C15.9153 17.096 15.8653 17.276 15.7653 17.432C15.6693 17.588 15.5293 17.712 15.3453 17.804ZM13.4553 17.48H14.2113C14.5473 17.48 14.7153 17.342 14.7153 17.066C14.7153 16.79 14.5473 16.652 14.2113 16.652H13.4553V17.48ZM14.3913 19.148C14.7353 19.148 14.9073 19.002 14.9073 18.71C14.9073 18.426 14.7353 18.284 14.3913 18.284H13.4553V19.148H14.3913ZM20.5602 20.084C20.1162 20.084 19.7162 19.99 19.3602 19.802C19.0082 19.614 18.7302 19.354 18.5262 19.022C18.3262 18.69 18.2262 18.316 18.2262 17.9C18.2262 17.484 18.3262 17.11 18.5262 16.778C18.7302 16.446 19.0082 16.186 19.3602 15.998C19.7162 15.81 20.1162 15.716 20.5602 15.716C21.0042 15.716 21.4022 15.81 21.7542 15.998C22.1102 16.186 22.3882 16.446 22.5882 16.778C22.7922 17.11 22.8942 17.484 22.8942 17.9C22.8942 18.316 22.7922 18.69 22.5882 19.022C22.3882 19.354 22.1102 19.614 21.7542 19.802C21.4022 19.99 21.0042 20.084 20.5602 20.084ZM20.5602 19.1C20.7722 19.1 20.9642 19.05 21.1362 18.95C21.3082 18.85 21.4442 18.71 21.5442 18.53C21.6442 18.346 21.6942 18.136 21.6942 17.9C21.6942 17.664 21.6442 17.456 21.5442 17.276C21.4442 17.092 21.3082 16.95 21.1362 16.85C20.9642 16.75 20.7722 16.7 20.5602 16.7C20.3482 16.7 20.1562 16.75 19.9842 16.85C19.8122 16.95 19.6762 17.092 19.5762 17.276C19.4762 17.456 19.4262 17.664 19.4262 17.9C19.4262 18.136 19.4762 18.346 19.5762 18.53C19.6762 18.71 19.8122 18.85 19.9842 18.95C20.1562 19.05 20.3482 19.1 20.5602 19.1ZM27.9243 19.058V20.846H26.8383V20H24.1503V20.846H23.0583V19.058H23.2083C23.4563 19.054 23.6303 18.884 23.7303 18.548C23.8343 18.212 23.8983 17.728 23.9223 17.096L23.9703 15.8H27.3543V19.058H27.9243ZM24.9603 17.198C24.9443 17.646 24.9083 18.026 24.8523 18.338C24.7963 18.65 24.7103 18.89 24.5943 19.058H26.1843V16.742H24.9783L24.9603 17.198ZM32.4883 15.8V20H31.3003V18.362H29.6803V20H28.4923V15.8H29.6803V17.378H31.3003V15.8H32.4883ZM37.3808 15.8L35.6408 19.046C35.4568 19.394 35.2308 19.658 34.9628 19.838C34.6988 20.018 34.4088 20.108 34.0928 20.108C33.8608 20.108 33.6128 20.056 33.3488 19.952L33.6308 19.076C33.7948 19.124 33.9348 19.148 34.0508 19.148C34.1668 19.148 34.2688 19.122 34.3568 19.07C34.4488 19.018 34.5328 18.936 34.6088 18.824L32.9768 15.8H34.2308L35.2088 17.828L36.2228 15.8H37.3808ZM11.0969 27.084C10.6569 27.084 10.2609 26.992 9.90893 26.808C9.56093 26.62 9.28693 26.36 9.08693 26.028C8.88693 25.696 8.78693 25.32 8.78693 24.9C8.78693 24.48 8.88693 24.104 9.08693 23.772C9.28693 23.44 9.56093 23.182 9.90893 22.998C10.2609 22.81 10.6569 22.716 11.0969 22.716C11.4809 22.716 11.8269 22.784 12.1349 22.92C12.4429 23.056 12.6989 23.252 12.9029 23.508L12.1469 24.192C11.8749 23.864 11.5449 23.7 11.1569 23.7C10.9289 23.7 10.7249 23.75 10.5449 23.85C10.3689 23.95 10.2309 24.092 10.1309 24.276C10.0349 24.456 9.98693 24.664 9.98693 24.9C9.98693 25.136 10.0349 25.346 10.1309 25.53C10.2309 25.71 10.3689 25.85 10.5449 25.95C10.7249 26.05 10.9289 26.1 11.1569 26.1C11.5449 26.1 11.8749 25.936 12.1469 25.608L12.9029 26.292C12.6989 26.548 12.4429 26.744 12.1349 26.88C11.8269 27.016 11.4809 27.084 11.0969 27.084ZM16.7884 23.742H15.5044V27H14.3344V23.742H13.0444V22.8H16.7884V23.742ZM19.3415 27.084C18.8975 27.084 18.4975 26.99 18.1415 26.802C17.7895 26.614 17.5115 26.354 17.3075 26.022C17.1075 25.69 17.0075 25.316 17.0075 24.9C17.0075 24.484 17.1075 24.11 17.3075 23.778C17.5115 23.446 17.7895 23.186 18.1415 22.998C18.4975 22.81 18.8975 22.716 19.3415 22.716C19.7855 22.716 20.1835 22.81 20.5355 22.998C20.8915 23.186 21.1695 23.446 21.3695 23.778C21.5735 24.11 21.6755 24.484 21.6755 24.9C21.6755 25.316 21.5735 25.69 21.3695 26.022C21.1695 26.354 20.8915 26.614 20.5355 26.802C20.1835 26.99 19.7855 27.084 19.3415 27.084ZM19.3415 26.1C19.5535 26.1 19.7455 26.05 19.9175 25.95C20.0895 25.85 20.2255 25.71 20.3255 25.53C20.4255 25.346 20.4755 25.136 20.4755 24.9C20.4755 24.664 20.4255 24.456 20.3255 24.276C20.2255 24.092 20.0895 23.95 19.9175 23.85C19.7455 23.75 19.5535 23.7 19.3415 23.7C19.1295 23.7 18.9375 23.75 18.7655 23.85C18.5935 23.95 18.4575 24.092 18.3575 24.276C18.2575 24.456 18.2075 24.664 18.2075 24.9C18.2075 25.136 18.2575 25.346 18.3575 25.53C18.4575 25.71 18.5935 25.85 18.7655 25.95C18.9375 26.05 19.1295 26.1 19.3415 26.1ZM24.2307 22.8C24.6107 22.8 24.9407 22.864 25.2207 22.992C25.5007 23.116 25.7167 23.296 25.8687 23.532C26.0207 23.764 26.0967 24.038 26.0967 24.354C26.0967 24.67 26.0207 24.944 25.8687 25.176C25.7167 25.408 25.5007 25.588 25.2207 25.716C24.9407 25.84 24.6107 25.902 24.2307 25.902H23.4987V27H22.3107V22.8H24.2307ZM24.1587 24.966C24.4027 24.966 24.5867 24.914 24.7107 24.81C24.8347 24.702 24.8967 24.55 24.8967 24.354C24.8967 24.158 24.8347 24.006 24.7107 23.898C24.5867 23.79 24.4027 23.736 24.1587 23.736H23.4987V24.966H24.1587ZM28.7575 27.084C28.3135 27.084 27.9135 26.99 27.5575 26.802C27.2055 26.614 26.9275 26.354 26.7235 26.022C26.5235 25.69 26.4235 25.316 26.4235 24.9C26.4235 24.484 26.5235 24.11 26.7235 23.778C26.9275 23.446 27.2055 23.186 27.5575 22.998C27.9135 22.81 28.3135 22.716 28.7575 22.716C29.2015 22.716 29.5995 22.81 29.9515 22.998C30.3075 23.186 30.5855 23.446 30.7855 23.778C30.9895 24.11 31.0915 24.484 31.0915 24.9C31.0915 25.316 30.9895 25.69 30.7855 26.022C30.5855 26.354 30.3075 26.614 29.9515 26.802C29.5995 26.99 29.2015 27.084 28.7575 27.084ZM28.7575 26.1C28.9695 26.1 29.1615 26.05 29.3335 25.95C29.5055 25.85 29.6415 25.71 29.7415 25.53C29.8415 25.346 29.8915 25.136 29.8915 24.9C29.8915 24.664 29.8415 24.456 29.7415 24.276C29.6415 24.092 29.5055 23.95 29.3335 23.85C29.1615 23.75 28.9695 23.7 28.7575 23.7C28.5455 23.7 28.3535 23.75 28.1815 23.85C28.0095 23.95 27.8735 24.092 27.7735 24.276C27.6735 24.456 27.6235 24.664 27.6235 24.9C27.6235 25.136 27.6735 25.346 27.7735 25.53C27.8735 25.71 28.0095 25.85 28.1815 25.95C28.3535 26.05 28.5455 26.1 28.7575 26.1ZM35.7227 22.8V27H34.5347V25.362H32.9147V27H31.7267V22.8H32.9147V24.378H34.5347V22.8H35.7227ZM40.6151 22.8L38.8751 26.046C38.6911 26.394 38.4651 26.658 38.1971 26.838C37.9331 27.018 37.6431 27.108 37.3271 27.108C37.0951 27.108 36.8471 27.056 36.5831 26.952L36.8651 26.076C37.0291 26.124 37.1691 26.148 37.2851 26.148C37.4011 26.148 37.5031 26.122 37.5911 26.07C37.6831 26.018 37.7671 25.936 37.8431 25.824L36.2111 22.8H37.4651L38.4431 24.828L39.4571 22.8H40.6151Z" fill="#28477C"/>
</svg>
