<svg width="31" height="92" viewBox="0 0 31 92" fill="none" xmlns="http://www.w3.org/2000/svg">
<path fill-rule="evenodd" clip-rule="evenodd" d="M23.7545 8.28592C23.7545 12.8621 20.0448 16.5718 15.4686 16.5718C10.8924 16.5718 7.18265 12.8621 7.18265 8.28592C7.18265 3.70973 10.8924 0 15.4686 0C20.0448 0 23.7545 3.70973 23.7545 8.28592ZM21.1824 85.5748C20.9645 88.7116 18.3564 91.145 15.2119 91.145C12.0356 91.145 9.41253 88.6636 9.23633 85.4921L7.54466 55.0421H6.0004C2.4934 55.0421 -0.266042 52.0472 0.0204566 48.5519L1.99611 24.449C2.25129 21.3358 4.85239 18.9391 7.97605 18.9391H11.9179L14.2853 23.6739L11.9179 35.511L15.469 38.4702L19.0201 35.511L16.6527 23.6739L19.0201 18.9391H22.8697C26.031 18.9391 28.65 21.392 28.8569 24.5465L30.4374 48.6495C30.6643 52.1102 27.9185 55.0421 24.4503 55.0421H23.3027L21.1824 85.5748Z" fill="#28477C"/>
</svg>
